<svg width="48" height="53" viewBox="0 0 48 53" fill="none" xmlns="http://www.w3.org/2000/svg">
<path d="M17.1179 41.3865H30.8821V42.6488C30.8803 43.4402 30.5577 44.1987 29.985 44.7583C29.4122 45.318 28.636 45.6331 27.826 45.6349H20.1757C19.3658 45.6331 18.5895 45.318 18.0168 44.7583C17.444 44.1987 17.1215 43.4402 17.1196 42.6488L17.1179 41.3865ZM39.763 23.452C39.7645 26.0676 39.0837 28.6405 37.7849 30.9276C36.4862 33.2147 34.6123 35.1407 32.3402 36.5238C31.7036 36.9002 31.1756 37.4287 30.8059 38.0596C30.4362 38.6905 30.2371 39.403 30.2272 40.13H17.7734C17.7635 39.403 17.5643 38.6904 17.1945 38.0595C16.8247 37.4285 16.2965 36.9 15.6598 36.5238C13.3309 35.1051 11.4214 33.117 10.1202 30.756C8.81904 28.395 8.17124 25.743 8.2409 23.0623C8.31056 20.3816 9.09527 17.7652 10.5174 15.4717C11.9395 13.1783 13.9498 11.2874 16.3494 9.98605C18.749 8.68471 21.4547 8.01803 24.1989 8.05195C26.943 8.08588 29.6306 8.81924 31.9957 10.1795C34.3608 11.5397 36.3215 13.4798 37.6838 15.8076C39.0461 18.1355 39.7628 20.7705 39.763 23.452ZM32.1145 19.4578C32.0549 19.3993 31.9841 19.3529 31.906 19.3212C31.828 19.2895 31.7444 19.2732 31.6599 19.2732C31.5754 19.2732 31.4917 19.2895 31.4137 19.3212C31.3357 19.3529 31.2649 19.3993 31.2052 19.4578L22.3378 28.1632L16.7936 22.746C16.6729 22.6281 16.5093 22.562 16.3387 22.562C16.1682 22.5621 16.0046 22.6283 15.884 22.7462C15.7635 22.8641 15.6958 23.024 15.6958 23.1907C15.6959 23.3573 15.7637 23.5171 15.8843 23.635L21.884 29.4973C21.9437 29.5557 22.0146 29.602 22.0927 29.6336C22.1708 29.6652 22.2545 29.6814 22.339 29.6813C22.4235 29.6813 22.5073 29.6649 22.5853 29.6331C22.6634 29.6013 22.7343 29.5548 22.7939 29.4961L32.1168 20.3462C32.1766 20.2878 32.2239 20.2185 32.2561 20.1422C32.2883 20.0659 32.3048 19.9841 32.3046 19.9015C32.3043 19.819 32.2874 19.7373 32.2548 19.6611C32.2222 19.585 32.1745 19.5159 32.1145 19.4578ZM20.4038 49.9962H27.5962V48.9231H20.4038V49.9962ZM22.5594 53H25.4406C25.9477 52.9982 26.4381 52.8222 26.8259 52.5029C27.2138 52.1837 27.4744 51.7414 27.5624 51.2533H20.4376C20.5256 51.7414 20.7862 52.1837 21.1741 52.5029C21.5619 52.8222 22.0523 52.9982 22.5594 53ZM20.4015 47.6665H27.5962V46.8921H20.4038L20.4015 47.6665ZM24 5.35169C24.1702 5.35169 24.3333 5.28564 24.4536 5.16808C24.574 5.05053 24.6416 4.89108 24.6416 4.72483V0.628571C24.6416 0.461864 24.5738 0.301984 24.4531 0.184104C24.3325 0.0662243 24.1689 0 23.9983 0C23.8276 0 23.664 0.0662243 23.5434 0.184104C23.4227 0.301984 23.3549 0.461864 23.3549 0.628571V4.72312C23.3547 4.80587 23.3713 4.88785 23.4036 4.96432C23.436 5.0408 23.4835 5.11026 23.5435 5.1687C23.6034 5.22713 23.6747 5.27339 23.753 5.30479C23.8314 5.3362 23.9153 5.35214 24 5.35169ZM37.5537 10.8373C37.6382 10.8374 37.7219 10.8212 37.8 10.7896C37.8781 10.758 37.949 10.7117 38.0086 10.6532L40.972 7.75884C41.0926 7.64102 41.1604 7.48123 41.1604 7.31462C41.1604 7.14801 41.0926 6.98822 40.972 6.8704C40.8515 6.75259 40.6879 6.6864 40.5174 6.6864C40.3469 6.6864 40.1834 6.75259 40.0628 6.8704L37.1006 9.76422C37.0097 9.85181 36.9477 9.96387 36.9223 10.0861C36.897 10.2083 36.9096 10.3351 36.9584 10.4503C37.0073 10.5656 37.0902 10.6639 37.1965 10.7328C37.3029 10.8018 37.4279 10.8381 37.5555 10.8373H37.5537ZM4.83441 22.8235H0.643305C0.47269 22.8235 0.309063 22.8897 0.18842 23.0076C0.0677767 23.1254 0 23.2853 0 23.452C0 23.6187 0.0677767 23.7786 0.18842 23.8965C0.309063 24.0144 0.47269 24.0806 0.643305 24.0806H4.83208C5.00269 24.0806 5.16632 24.0144 5.28696 23.8965C5.40761 23.7786 5.47538 23.6187 5.47538 23.452C5.47538 23.2853 5.40761 23.1254 5.28696 23.0076C5.16632 22.8897 5.00269 22.8235 4.83208 22.8235H4.83441ZM9.99368 10.6532C10.0534 10.7116 10.1243 10.7579 10.2024 10.7895C10.2805 10.8211 10.3641 10.8373 10.4486 10.8373C10.5331 10.8373 10.6167 10.8211 10.6948 10.7895C10.7729 10.7579 10.8438 10.7116 10.9035 10.6532C10.9633 10.5949 11.0107 10.5256 11.043 10.4493C11.0753 10.373 11.092 10.2913 11.092 10.2087C11.092 10.1262 11.0753 10.0444 11.043 9.96816C11.0107 9.89189 10.9633 9.8226 10.9035 9.76422L7.94129 6.8704C7.88158 6.81203 7.8107 6.76572 7.73268 6.73411C7.65466 6.70251 7.57103 6.68623 7.48657 6.6862C7.40211 6.68617 7.31848 6.7024 7.24043 6.73396C7.16239 6.76552 7.09148 6.81178 7.03174 6.87012C6.972 6.92845 6.9246 6.99771 6.89225 7.07395C6.85991 7.15018 6.84324 7.23189 6.84322 7.31442C6.84316 7.48108 6.91087 7.64095 7.03145 7.75884L9.99368 10.6532ZM9.99368 36.2514L7.02795 39.1452C6.90729 39.2631 6.83951 39.423 6.83951 39.5897C6.83951 39.7564 6.90729 39.9163 7.02795 40.0342C7.1486 40.1521 7.31224 40.2183 7.48287 40.2183C7.6535 40.2183 7.81713 40.1521 7.93779 40.0342L10.8994 37.1398C11.02 37.022 11.0878 36.8622 11.0878 36.6956C11.0878 36.529 11.02 36.3692 10.8994 36.2514C10.7789 36.1336 10.6153 36.0674 10.4448 36.0674C10.2743 36.0674 10.1108 36.1336 9.99018 36.2514H9.99368ZM47.3567 22.8235H43.1679C42.9973 22.8235 42.8337 22.8897 42.713 23.0076C42.5924 23.1254 42.5246 23.2853 42.5246 23.452C42.5246 23.6187 42.5924 23.7786 42.713 23.8965C42.8337 24.0144 42.9973 24.0806 43.1679 24.0806H47.3567C47.5273 24.0806 47.6909 24.0144 47.8116 23.8965C47.9322 23.7786 48 23.6187 48 23.452C48 23.2853 47.9322 23.1254 47.8116 23.0076C47.6909 22.8897 47.5273 22.8235 47.3567 22.8235ZM38.0086 36.2508C37.9489 36.1925 37.878 36.1462 37.7999 36.1146C37.7219 36.083 37.6382 36.0667 37.5537 36.0667C37.4692 36.0667 37.3856 36.083 37.3075 36.1146C37.2295 36.1462 37.1585 36.1925 37.0988 36.2508C37.0391 36.3092 36.9917 36.3785 36.9593 36.4548C36.927 36.531 36.9104 36.6128 36.9104 36.6953C36.9104 36.7779 36.927 36.8596 36.9593 36.9359C36.9917 37.0122 37.0391 37.0815 37.0988 37.1398L40.061 40.0342C40.1817 40.1521 40.3453 40.2183 40.516 40.2183C40.6866 40.2183 40.8502 40.1521 40.9709 40.0342C41.0915 39.9163 41.1593 39.7564 41.1593 39.5897C41.1593 39.423 41.0915 39.2631 40.9709 39.1452L38.0086 36.2508ZM19.0688 48.9231H19.1172V47.6694H19.0688C18.8986 47.6694 18.7354 47.7354 18.6151 47.853C18.4948 47.9706 18.4272 48.13 18.4272 48.2963C18.4272 48.4625 18.4948 48.622 18.6151 48.7395C18.7354 48.8571 18.8986 48.9231 19.0688 48.9231ZM28.9312 47.6694H28.8828V48.9231H28.9312C29.1014 48.9231 29.2646 48.8571 29.3849 48.7395C29.5052 48.622 29.5728 48.4625 29.5728 48.2963C29.5728 48.13 29.5052 47.9706 29.3849 47.853C29.2646 47.7354 29.1014 47.6694 28.9312 47.6694ZM19.1172 49.9962H19.0688C18.8982 49.9962 18.7345 50.0624 18.6139 50.1803C18.4932 50.2982 18.4255 50.4581 18.4255 50.6248C18.4255 50.7915 18.4932 50.9514 18.6139 51.0692C18.7345 51.1871 18.8982 51.2533 19.0688 51.2533H19.137C19.1239 51.1339 19.1173 51.0139 19.1172 50.8937V49.9962ZM28.9312 49.9962H28.8828V50.8915C28.8827 51.0116 28.8761 51.1316 28.863 51.2511H28.9312C29.1018 51.2511 29.2655 51.1848 29.3861 51.067C29.5068 50.9491 29.5745 50.7892 29.5745 50.6225C29.5745 50.4558 29.5068 50.2959 29.3861 50.178C29.2655 50.0601 29.1018 49.9939 28.9312 49.9939V49.9962Z" fill="url(#paint0_linear_7_5684)"/>
<defs>
<linearGradient id="paint0_linear_7_5684" x1="19" y1="43" x2="45.5007" y2="32.5846" gradientUnits="userSpaceOnUse">
<stop stop-color="#8715E4"/>
<stop offset="0.4375" stop-color="#E62274"/>
<stop offset="1" stop-color="#F9CE00"/>
</linearGradient>
</defs>
</svg>
