<svg width="56" height="57" viewBox="0 0 56 57" fill="none" xmlns="http://www.w3.org/2000/svg">
<mask id="path-1-inside-1_56_4507" fill="white">
<path d="M44.3464 0.112759C44.0975 0.203262 43.7695 0.327702 43.6111 0.418205C43.4527 0.497395 41.8237 2.05857 39.991 3.87994L36.6537 7.20592L20.0125 7.22855L3.38255 7.26249L2.52277 7.68106C1.4933 8.19014 0.859778 8.84629 0.362012 9.89838L0 10.6563V26.2228V41.778L0.418576 42.6378C0.927655 43.6673 1.5838 44.3008 2.6359 44.7986L3.39386 45.1606L12.2405 45.1945L21.0985 45.2285L20.2048 47.0159L19.2997 48.8033L18.5418 48.8712C17.6028 48.9617 16.5507 49.4368 15.8493 50.093C14.7859 51.0659 14.1976 52.8873 14.5483 54.1204C14.7407 54.8218 15.6344 55.7381 16.3018 55.9417C16.6525 56.0436 19.5147 56.0775 28.022 56.0775C40.7942 56.0775 39.9457 56.1341 40.8168 55.1725C41.7218 54.1656 41.8123 52.876 41.0657 51.3713C40.3756 49.9572 39.0181 49.0183 37.4569 48.8712L36.6989 48.8033L35.7939 47.0159L34.9002 45.2285L43.7582 45.1945L52.6048 45.1606L53.3628 44.7986C54.4149 44.3008 55.071 43.6673 55.5801 42.6378L55.9987 41.778V26.2228V10.6563L55.6367 9.89838C55.1389 8.84629 54.5054 8.19014 53.4759 7.68106L52.6161 7.26249L49.573 7.22855L46.5411 7.19461L47.4009 6.27827C48.5209 5.12436 48.7584 4.60397 48.7584 3.41611C48.7471 2.7034 48.6906 2.39796 48.4982 1.9907C48.1589 1.31192 47.4575 0.610523 46.8013 0.293766C46.1565 -0.0116806 44.9799 -0.0908737 44.3464 0.112759ZM46.1904 2.00201C46.9144 2.44321 47.2199 3.41611 46.8466 4.12883C46.7561 4.29852 46.1452 4.96598 45.489 5.62212L44.2899 6.80997L43.1359 5.64475L41.9707 4.49084L43.102 3.34824C43.7242 2.71472 44.3917 2.10382 44.5727 1.9907C45.0139 1.70787 45.7153 1.71918 46.1904 2.00201ZM41.8576 6.97967L42.9889 8.11095L42.2762 8.81235L41.5748 9.52506L40.4209 8.37115L39.2556 7.20592L39.9344 6.52715C40.3077 6.15383 40.6358 5.84838 40.6697 5.84838C40.7037 5.84838 41.2354 6.35746 41.8576 6.97967ZM39.1425 9.69476L40.2738 10.826L33.2259 17.874L26.1893 24.9106L25.0354 23.7453L23.8701 22.5914L30.8841 15.5774C34.7418 11.7198 37.9207 8.56347 37.9547 8.56347C37.9886 8.56347 38.5203 9.07255 39.1425 9.69476ZM33.9386 9.92101L33.0336 10.826H22.1845C14.0053 10.826 11.2224 10.86 10.8717 10.9618C10.2495 11.1428 9.31049 12.0818 9.12948 12.704C8.93716 13.3714 8.93716 31.8114 9.12948 32.4789C9.31049 33.1011 10.2495 34.04 10.8717 34.221C11.2337 34.3229 15.2497 34.3568 28.022 34.3568C46.8692 34.3568 45.3646 34.436 46.247 33.4518C46.5185 33.1576 46.8013 32.7051 46.8692 32.4562C47.0615 31.8114 47.0615 13.3714 46.8692 12.704C46.6882 12.0818 45.7492 11.1428 45.127 10.9618C44.8668 10.8826 44.2559 10.826 43.7695 10.826H42.8758L43.7808 9.92101L44.6858 9.01598H48.2946C50.7948 9.01598 52.0392 9.06123 52.3672 9.15174C52.9895 9.33274 53.9284 10.2717 54.1094 10.8939C54.2112 11.2446 54.2452 14.3557 54.2452 23.768V36.1669H27.9993H1.75349V23.768C1.75349 14.3557 1.78743 11.2446 1.88925 10.8939C2.05894 10.317 3.00922 9.34406 3.56355 9.16305C3.84637 9.07255 8.48465 9.03861 19.4016 9.0273L34.8436 9.01598L33.9386 9.92101ZM29.4134 14.4462L27.6034 16.2562H19.2092H10.8038V14.729C10.8038 13.247 10.8151 13.1791 11.0866 12.9189L11.3581 12.6361H21.2908H31.2235L29.4134 14.4462ZM44.9121 12.9189C45.1836 13.1791 45.1949 13.247 45.1949 14.729V16.2562H41.3259H37.4456L39.2556 14.4462L41.0657 12.6361H42.8531C44.5953 12.6361 44.6406 12.6474 44.9121 12.9189ZM23.791 20.0686C22.0714 21.7995 21.7546 22.1728 21.5171 22.7611L21.2342 23.4399L16.924 23.4738L12.6138 23.4964V24.4015V25.3065L16.5055 25.3291L20.4084 25.3631L20.0351 26.2115L19.6731 27.06L16.1435 27.0939L12.6138 27.1166V28.0216V28.9266H15.7701H18.9264L19.0622 29.266C19.2206 29.6393 19.4808 29.8317 19.8314 29.8317C20.1143 29.8317 26.6418 27.0374 26.8907 26.8111C27.083 26.6414 27.0943 26.7772 27.0943 29.5828V32.5467H19.2319H11.3581L11.0866 32.2639L10.8038 31.9924V25.0237V18.0663H18.2929H25.7933L23.791 20.0686ZM45.1949 25.0237V31.9924L44.9121 32.2639L44.6406 32.5467H36.7668H28.9044V28.6777V24.7974L32.2643 21.4375L35.6355 18.0663H40.4095H45.1949V25.0237ZM23.7231 25.0463C24.153 25.4649 24.4923 25.8382 24.4923 25.8835C24.4923 25.9853 21.7773 27.1505 21.6981 27.0826C21.6302 27.0147 22.7954 24.2883 22.8859 24.2883C22.9312 24.2883 23.3045 24.6277 23.7231 25.0463ZM54.2452 39.5155C54.2452 40.3979 54.1886 41.2576 54.1094 41.5292C53.9284 42.1514 52.9895 43.0903 52.3672 43.2713C51.6885 43.475 4.3102 43.475 3.63143 43.2713C3.00922 43.0903 2.07025 42.1514 1.88925 41.5292C1.81006 41.2576 1.75349 40.3979 1.75349 39.5155V37.9769H27.9993H54.2452V39.5155ZM33.7689 47.0272L34.6739 48.8373H27.9993H21.3247L22.2298 47.0272L23.1348 45.2171H27.9993H32.8639L33.7689 47.0272ZM37.8868 50.7831C38.509 50.9641 39.448 51.9031 39.629 52.5253C39.8439 53.2493 39.7987 53.6792 39.4819 53.9846L39.2104 54.2674H27.9993H16.7883L16.5168 53.9846C16.2 53.6792 16.1548 53.2493 16.3697 52.5253C16.5394 51.9483 17.4897 50.9754 18.044 50.7944C18.6323 50.6134 37.2533 50.6021 37.8868 50.7831Z"/>
</mask>
<path d="M44.3464 0.112759C44.0975 0.203262 43.7695 0.327702 43.6111 0.418205C43.4527 0.497395 41.8237 2.05857 39.991 3.87994L36.6537 7.20592L20.0125 7.22855L3.38255 7.26249L2.52277 7.68106C1.4933 8.19014 0.859778 8.84629 0.362012 9.89838L0 10.6563V26.2228V41.778L0.418576 42.6378C0.927655 43.6673 1.5838 44.3008 2.6359 44.7986L3.39386 45.1606L12.2405 45.1945L21.0985 45.2285L20.2048 47.0159L19.2997 48.8033L18.5418 48.8712C17.6028 48.9617 16.5507 49.4368 15.8493 50.093C14.7859 51.0659 14.1976 52.8873 14.5483 54.1204C14.7407 54.8218 15.6344 55.7381 16.3018 55.9417C16.6525 56.0436 19.5147 56.0775 28.022 56.0775C40.7942 56.0775 39.9457 56.1341 40.8168 55.1725C41.7218 54.1656 41.8123 52.876 41.0657 51.3713C40.3756 49.9572 39.0181 49.0183 37.4569 48.8712L36.6989 48.8033L35.7939 47.0159L34.9002 45.2285L43.7582 45.1945L52.6048 45.1606L53.3628 44.7986C54.4149 44.3008 55.071 43.6673 55.5801 42.6378L55.9987 41.778V26.2228V10.6563L55.6367 9.89838C55.1389 8.84629 54.5054 8.19014 53.4759 7.68106L52.6161 7.26249L49.573 7.22855L46.5411 7.19461L47.4009 6.27827C48.5209 5.12436 48.7584 4.60397 48.7584 3.41611C48.7471 2.7034 48.6906 2.39796 48.4982 1.9907C48.1589 1.31192 47.4575 0.610523 46.8013 0.293766C46.1565 -0.0116806 44.9799 -0.0908737 44.3464 0.112759ZM46.1904 2.00201C46.9144 2.44321 47.2199 3.41611 46.8466 4.12883C46.7561 4.29852 46.1452 4.96598 45.489 5.62212L44.2899 6.80997L43.1359 5.64475L41.9707 4.49084L43.102 3.34824C43.7242 2.71472 44.3917 2.10382 44.5727 1.9907C45.0139 1.70787 45.7153 1.71918 46.1904 2.00201ZM41.8576 6.97967L42.9889 8.11095L42.2762 8.81235L41.5748 9.52506L40.4209 8.37115L39.2556 7.20592L39.9344 6.52715C40.3077 6.15383 40.6358 5.84838 40.6697 5.84838C40.7037 5.84838 41.2354 6.35746 41.8576 6.97967ZM39.1425 9.69476L40.2738 10.826L33.2259 17.874L26.1893 24.9106L25.0354 23.7453L23.8701 22.5914L30.8841 15.5774C34.7418 11.7198 37.9207 8.56347 37.9547 8.56347C37.9886 8.56347 38.5203 9.07255 39.1425 9.69476ZM33.9386 9.92101L33.0336 10.826H22.1845C14.0053 10.826 11.2224 10.86 10.8717 10.9618C10.2495 11.1428 9.31049 12.0818 9.12948 12.704C8.93716 13.3714 8.93716 31.8114 9.12948 32.4789C9.31049 33.1011 10.2495 34.04 10.8717 34.221C11.2337 34.3229 15.2497 34.3568 28.022 34.3568C46.8692 34.3568 45.3646 34.436 46.247 33.4518C46.5185 33.1576 46.8013 32.7051 46.8692 32.4562C47.0615 31.8114 47.0615 13.3714 46.8692 12.704C46.6882 12.0818 45.7492 11.1428 45.127 10.9618C44.8668 10.8826 44.2559 10.826 43.7695 10.826H42.8758L43.7808 9.92101L44.6858 9.01598H48.2946C50.7948 9.01598 52.0392 9.06123 52.3672 9.15174C52.9895 9.33274 53.9284 10.2717 54.1094 10.8939C54.2112 11.2446 54.2452 14.3557 54.2452 23.768V36.1669H27.9993H1.75349V23.768C1.75349 14.3557 1.78743 11.2446 1.88925 10.8939C2.05894 10.317 3.00922 9.34406 3.56355 9.16305C3.84637 9.07255 8.48465 9.03861 19.4016 9.0273L34.8436 9.01598L33.9386 9.92101ZM29.4134 14.4462L27.6034 16.2562H19.2092H10.8038V14.729C10.8038 13.247 10.8151 13.1791 11.0866 12.9189L11.3581 12.6361H21.2908H31.2235L29.4134 14.4462ZM44.9121 12.9189C45.1836 13.1791 45.1949 13.247 45.1949 14.729V16.2562H41.3259H37.4456L39.2556 14.4462L41.0657 12.6361H42.8531C44.5953 12.6361 44.6406 12.6474 44.9121 12.9189ZM23.791 20.0686C22.0714 21.7995 21.7546 22.1728 21.5171 22.7611L21.2342 23.4399L16.924 23.4738L12.6138 23.4964V24.4015V25.3065L16.5055 25.3291L20.4084 25.3631L20.0351 26.2115L19.6731 27.06L16.1435 27.0939L12.6138 27.1166V28.0216V28.9266H15.7701H18.9264L19.0622 29.266C19.2206 29.6393 19.4808 29.8317 19.8314 29.8317C20.1143 29.8317 26.6418 27.0374 26.8907 26.8111C27.083 26.6414 27.0943 26.7772 27.0943 29.5828V32.5467H19.2319H11.3581L11.0866 32.2639L10.8038 31.9924V25.0237V18.0663H18.2929H25.7933L23.791 20.0686ZM45.1949 25.0237V31.9924L44.9121 32.2639L44.6406 32.5467H36.7668H28.9044V28.6777V24.7974L32.2643 21.4375L35.6355 18.0663H40.4095H45.1949V25.0237ZM23.7231 25.0463C24.153 25.4649 24.4923 25.8382 24.4923 25.8835C24.4923 25.9853 21.7773 27.1505 21.6981 27.0826C21.6302 27.0147 22.7954 24.2883 22.8859 24.2883C22.9312 24.2883 23.3045 24.6277 23.7231 25.0463ZM54.2452 39.5155C54.2452 40.3979 54.1886 41.2576 54.1094 41.5292C53.9284 42.1514 52.9895 43.0903 52.3672 43.2713C51.6885 43.475 4.3102 43.475 3.63143 43.2713C3.00922 43.0903 2.07025 42.1514 1.88925 41.5292C1.81006 41.2576 1.75349 40.3979 1.75349 39.5155V37.9769H27.9993H54.2452V39.5155ZM33.7689 47.0272L34.6739 48.8373H27.9993H21.3247L22.2298 47.0272L23.1348 45.2171H27.9993H32.8639L33.7689 47.0272ZM37.8868 50.7831C38.509 50.9641 39.448 51.9031 39.629 52.5253C39.8439 53.2493 39.7987 53.6792 39.4819 53.9846L39.2104 54.2674H27.9993H16.7883L16.5168 53.9846C16.2 53.6792 16.1548 53.2493 16.3697 52.5253C16.5394 51.9483 17.4897 50.9754 18.044 50.7944C18.6323 50.6134 37.2533 50.6021 37.8868 50.7831Z" fill="url(#paint0_linear_56_4507)" stroke="#030720" stroke-width="0.6" mask="url(#path-1-inside-1_56_4507)"/>
<path d="M16.3844 20.7813V21.5363H18.9495H21.5146V20.7813V20.0262H18.9495H16.3844V20.7813Z" fill="url(#paint1_linear_56_4507)" stroke="#030720" stroke-width="0.3"/>
<path d="M34.485 20.7813V21.5363H37.05H39.6151V20.7813V20.0262H37.05H34.485V20.7813Z" fill="url(#paint2_linear_56_4507)" stroke="#030720" stroke-width="0.3"/>
<path d="M41.7252 20.7813V21.5363H42.4802H43.2353V20.7813V20.0262H42.4802H41.7252V20.7813Z" fill="url(#paint3_linear_56_4507)" stroke="#030720" stroke-width="0.3"/>
<path d="M30.8648 24.4014V25.1564H37.05H43.2353V24.4014V23.6463H37.05H30.8648V24.4014Z" fill="url(#paint4_linear_56_4507)" stroke="#030720" stroke-width="0.3"/>
<path d="M30.8648 28.0217V28.7768H37.05H43.2353V28.0217V27.2667H37.05H30.8648V28.0217Z" fill="url(#paint5_linear_56_4507)" stroke="#030720" stroke-width="0.3"/>
<path d="M27.2447 40.6919V41.4469H27.9998H28.7548V40.6919V39.9369H27.9998H27.2447V40.6919Z" fill="url(#paint6_linear_56_4507)" stroke="#030720" stroke-width="0.3"/>
<defs>
<linearGradient id="paint0_linear_56_4507" x1="9.15363" y1="-1.68226e-06" x2="71.4419" y2="20.3561" gradientUnits="userSpaceOnUse">
<stop stop-color="#8715E4"/>
<stop offset="1" stop-color="#E62274"/>
</linearGradient>
<linearGradient id="paint1_linear_56_4507" x1="17.122" y1="19.8762" x2="20.526" y2="23.2182" gradientUnits="userSpaceOnUse">
<stop stop-color="#8715E4"/>
<stop offset="1" stop-color="#E62274"/>
</linearGradient>
<linearGradient id="paint2_linear_56_4507" x1="35.2226" y1="19.8762" x2="38.6265" y2="23.2182" gradientUnits="userSpaceOnUse">
<stop stop-color="#8715E4"/>
<stop offset="1" stop-color="#E62274"/>
</linearGradient>
<linearGradient id="paint3_linear_56_4507" x1="41.8711" y1="19.8762" x2="43.8839" y2="20.5349" gradientUnits="userSpaceOnUse">
<stop stop-color="#8715E4"/>
<stop offset="1" stop-color="#E62274"/>
</linearGradient>
<linearGradient id="paint4_linear_56_4507" x1="32.786" y1="23.4963" x2="35.2825" y2="29.2156" gradientUnits="userSpaceOnUse">
<stop stop-color="#8715E4"/>
<stop offset="1" stop-color="#E62274"/>
</linearGradient>
<linearGradient id="paint5_linear_56_4507" x1="32.786" y1="27.1167" x2="35.2825" y2="32.836" gradientUnits="userSpaceOnUse">
<stop stop-color="#8715E4"/>
<stop offset="1" stop-color="#E62274"/>
</linearGradient>
<linearGradient id="paint6_linear_56_4507" x1="27.3906" y1="39.7869" x2="29.4034" y2="40.4456" gradientUnits="userSpaceOnUse">
<stop stop-color="#8715E4"/>
<stop offset="1" stop-color="#E62274"/>
</linearGradient>
</defs>
</svg>
