<svg width="59" height="56" viewBox="0 0 59 56" fill="none" xmlns="http://www.w3.org/2000/svg">
<path d="M9.33845 48.9853L9.33845 48.9854L9.34364 48.9853C9.75862 48.9745 10.153 48.8021 10.4427 48.5048C10.7324 48.2075 10.8945 47.8088 10.8945 47.3937C10.8946 46.9786 10.7324 46.5799 10.4427 46.2825C10.153 45.9852 9.75868 45.8128 9.3437 45.802L9.34371 45.8019L9.33852 45.802C8.92354 45.8128 8.52917 45.9852 8.23946 46.2825C7.94975 46.5798 7.78762 46.9785 7.78761 47.3936C7.7876 47.8087 7.94972 48.2074 8.23942 48.5048C8.52912 48.8021 8.92348 48.9745 9.33845 48.9853ZM7.00301 45.0381C7.62076 44.4103 8.46042 44.0502 9.34105 44.0356C10.2217 44.0502 11.0613 44.4102 11.6791 45.038C12.2973 45.6662 12.6437 46.5123 12.6437 47.3936C12.6437 48.2749 12.2973 49.121 11.6792 49.7492C11.0614 50.377 10.2218 50.7371 9.34115 50.7517C8.46052 50.7371 7.62086 50.3771 7.00309 49.7493C6.38494 49.1211 6.03849 48.275 6.03848 47.3937C6.03846 46.5124 6.38488 45.6663 7.00301 45.0381Z" fill="url(#paint0_linear_7_5853)" stroke="#030720" stroke-width="0.2"/>
<path d="M14.8485 32.0493C14.8505 31.7609 14.738 31.4834 14.5358 31.2778C14.3334 31.072 14.0577 30.955 13.7691 30.9523H13.7682L2.94691 30.9523L2.94597 30.9523L14.0034 53.3324C14.2175 53.2767 14.407 53.1513 14.5419 52.9759C14.6768 52.8006 14.7495 52.5853 14.7485 52.3641H14.8485V52.3639C14.8485 52.3638 14.8485 52.3637 14.8485 52.3636L14.8485 32.0493ZM14.8485 32.0493V32.049H14.7485L14.8485 32.0497C14.8485 32.0496 14.8485 32.0494 14.8485 32.0493ZM41.9834 46.5622L41.9704 46.5655C33.6831 48.6745 25.2409 50.1194 16.724 50.8866L16.615 50.8964V50.787V32.7547V32.6561L16.7136 32.6547C19.6744 32.6135 28.4742 32.1891 35.1771 28.7711L35.1788 28.7703C35.539 28.595 35.9497 28.5528 36.338 28.6512C36.7264 28.7496 37.0674 28.9822 37.3008 29.3078C37.5341 29.6335 37.6447 30.0312 37.613 30.4306C37.5813 30.8299 37.4093 31.2052 37.1275 31.49L37.1263 31.4912C34.7576 33.7995 30.21 36.3479 25.263 38.1491M41.9834 46.5622L25.2622 38.1494C25.2625 38.1493 25.2627 38.1492 25.263 38.1491M41.9834 46.5622L41.995 46.5556C48.9711 42.61 54.2702 35.3461 56.814 31.3601C57.4876 30.3795 57.0466 29.2651 56.2738 28.6476C55.8855 28.3374 55.4047 28.1435 54.9211 28.1506C54.4342 28.1578 53.9524 28.3688 53.5708 28.8533L53.5701 28.8528L53.5634 28.8639C50.7457 33.5862 46.4285 37.2295 41.2998 39.2133C36.172 41.1967 30.5281 41.4071 25.2669 39.811M41.9834 46.5622L25.2669 39.811M25.263 38.1491C25.0948 38.2138 24.9502 38.328 24.8483 38.4767C24.7463 38.6256 24.692 38.802 24.6927 38.9825C24.6933 39.163 24.7489 39.3391 24.852 39.4872C24.9545 39.6346 25.0992 39.7474 25.2669 39.811M25.263 38.1491L25.2669 39.811M57.3752 27.2556L57.3751 27.2558L57.3798 27.2593C58.1453 27.8266 58.6667 28.6637 58.8385 29.6009C59.0102 30.5382 58.8194 31.5057 58.3048 32.3076C55.6378 36.4619 49.9682 44.2801 42.5402 48.2422C34.0508 50.4093 25.4003 51.8871 16.6729 52.6614L16.5977 52.6681L16.5835 52.7423C16.4452 53.4659 16.1575 53.9943 15.7652 54.386C15.3719 54.7785 14.8679 55.0392 14.2887 55.2172C13.3528 55.5049 12.2404 55.5722 11.1111 55.6406C10.836 55.6572 10.5598 55.6739 10.2849 55.6939C8.1191 55.7323 5.99586 55.0898 4.21461 53.8571L4.21463 53.8571L4.21221 53.8555C2.9438 53.0308 1.90265 51.901 1.18421 50.5696C0.465769 49.2382 0.0930094 47.7477 0.1001 46.2348V46.2343L0.100101 32.049L0.1001 32.0488C0.0989195 31.2919 0.398011 30.5654 0.931768 30.0287C1.46548 29.492 2.19025 29.1889 2.94712 29.1858H13.7679C14.3076 29.1881 14.8355 29.344 15.2898 29.6352C15.7442 29.9265 16.1063 30.3411 16.3338 30.8306L16.361 30.8891L16.4255 30.8884C18.9119 30.8617 27.8532 30.5219 34.375 27.1974L34.3754 27.1972C35.0296 26.8592 35.7751 26.7407 36.5018 26.8592C37.2284 26.9776 37.8977 27.3268 38.4107 27.8549L38.4108 27.8551C39.0521 28.5129 39.4067 29.3981 39.3969 30.3168C39.3871 31.2345 39.0145 32.1111 38.3605 32.7549C35.5191 35.2531 32.2731 37.2493 28.7617 38.6578L28.4361 38.7884L28.7816 38.8491C33.9839 39.7634 39.3419 38.8011 43.901 36.1337L43.9335 36.1146L43.9454 36.0789L46.1798 29.3473C46.1799 29.3472 46.1799 29.347 46.18 29.3468C46.3805 28.7604 46.7183 28.2304 47.165 27.8008C47.6119 27.3711 48.1549 27.0543 48.749 26.8769C49.343 26.6994 49.9708 26.6664 50.5801 26.7806C51.1895 26.8948 51.7627 27.1529 52.2522 27.5334L52.3232 27.5886L52.3856 27.5239C53.0289 26.8561 53.9016 26.4571 54.8276 26.4073C55.7535 26.3575 56.6639 26.6607 57.3752 27.2556ZM1.09621 50.6171C1.8226 51.9633 2.87526 53.1056 4.1577 53.9393L0.000100376 32.049V46.2343C-0.00706797 47.7639 0.369815 49.2709 1.09621 50.6171ZM47.8592 29.8965L47.8588 29.8979L46.4664 34.0921L46.3551 34.4273L46.6256 34.2002C48.3883 32.7205 49.9468 31.0134 51.2603 29.1236L51.3116 29.0497L51.2436 28.9909C50.9822 28.7648 50.6695 28.6062 50.3327 28.5288C49.9959 28.4514 49.6453 28.4576 49.3115 28.547C48.9776 28.6363 48.6708 28.806 48.4176 29.0412C48.1645 29.2765 47.9728 29.5701 47.8592 29.8965ZM9.76353 53.8921C11.4058 53.9849 12.9975 53.7492 14.0309 53.4286L1.96656 32.049H1.86656V32.0493V46.2341C1.86009 47.4523 2.15946 48.6527 2.73723 49.7253C3.31423 50.7964 4.15046 51.7058 5.16948 52.3705C6.41793 53.3778 8.12304 53.7993 9.76353 53.8921Z" fill="url(#paint1_linear_7_5853)" stroke="#030720" stroke-width="0.2"/>
<path d="M16.8086 16.8871L16.7515 16.9442L16.7953 17.012C17.2648 17.7394 17.5307 18.5795 17.5653 19.4446C17.5999 20.3097 17.4019 21.1682 16.992 21.9308C16.5822 22.6935 15.9753 23.3323 15.2347 23.7807C14.4943 24.2291 13.6473 24.4708 12.7818 24.4807C12.0312 24.481 11.2909 24.3057 10.6201 23.9689C9.94921 23.6321 9.36637 23.143 8.91818 22.5408C8.46999 21.9385 8.16888 21.2397 8.03891 20.5004C7.90893 19.761 7.95369 19.0014 8.16962 18.2824C8.38554 17.5634 8.76664 16.9049 9.28247 16.3594C9.79829 15.814 10.4345 15.3967 11.1404 15.141C11.8462 14.8853 12.6021 14.7982 13.3476 14.8868C14.0931 14.9753 14.8075 15.237 15.4339 15.6508L15.502 15.6959L15.5597 15.6381L23.5043 7.69357L23.5621 7.6357L23.5169 7.56753C23.0722 6.89804 22.8024 6.12776 22.7323 5.32711C22.6621 4.52646 22.7938 3.721 23.1153 2.98439C23.4369 2.24779 23.9379 1.60354 24.5727 1.11056C25.2074 0.617589 25.9557 0.291623 26.749 0.162475C27.5422 0.0333263 28.3552 0.105117 29.1136 0.371282C29.8719 0.637446 30.5515 1.08949 31.09 1.68607C31.6286 2.28266 32.009 3.00474 32.1964 3.78629C32.3839 4.56784 32.3724 5.38392 32.163 6.15989L32.1417 6.23882L32.2149 6.27538L39.2239 9.77998L39.2999 9.81795L39.3497 9.74918C39.7719 9.16594 40.3194 8.68458 40.9519 8.34039C41.5843 7.99619 42.2858 7.79789 43.0049 7.76001C43.724 7.72214 44.4424 7.84564 45.1075 8.12148C45.7727 8.39732 46.3677 8.8185 46.8489 9.35416L46.9055 9.41721L46.977 9.37166L49.8208 7.55957L49.8991 7.50968L49.8551 7.4279C49.2917 6.37935 49.1373 5.15904 49.4219 4.00322C49.7065 2.8474 50.4099 1.83829 51.3958 1.17128C52.3817 0.504271 53.5801 0.226804 54.7588 0.392599C55.9376 0.558395 57.0129 1.15566 57.7765 2.06876C58.5402 2.98185 58.9379 4.14582 58.8926 5.33531C58.8474 6.5248 58.3624 7.65519 57.5315 8.50762C56.7007 9.36005 55.5831 9.87388 54.3952 9.94963C53.2073 10.0254 52.0335 9.65766 51.1011 8.91767L51.0453 8.87337L50.9852 8.91166L47.8523 10.908L47.7864 10.95L47.8112 11.024C48.0459 11.7263 48.1151 12.4733 48.0135 13.2067C47.9119 13.9401 47.6421 14.6402 47.2253 15.2521C46.8085 15.8641 46.2559 16.3715 45.6106 16.7346C44.9654 17.0978 44.2449 17.3069 43.5055 17.3457C42.7661 17.3844 42.0277 17.2518 41.348 16.9581C40.6683 16.6644 40.0657 16.2176 39.5871 15.6526C39.1086 15.0875 38.7672 14.4196 38.5894 13.7008C38.4116 12.982 38.4024 12.2319 38.5624 11.5089L38.5792 11.4328L38.5095 11.3979L31.4199 7.8531L31.3471 7.81671L31.2967 7.88058C30.551 8.82516 29.4789 9.45658 28.2912 9.65068C27.1035 9.84479 25.8862 9.58752 24.8786 8.92948L24.8106 8.88509L24.7532 8.9425L16.8086 16.8871ZM54.079 2.1122L54.0767 2.11222C53.2738 2.12125 52.5069 2.44652 51.9424 3.01745C51.3778 3.58839 51.0612 4.35893 51.0611 5.16186C51.0611 5.96479 51.3777 6.73534 51.9423 7.30629C52.5068 7.87724 53.2738 8.20254 54.0766 8.21161L54.0789 8.21158C54.8818 8.20256 55.6487 7.87729 56.2133 7.30635C56.7778 6.73542 57.0945 5.96488 57.0945 5.16195C57.0945 4.35902 56.7779 3.58847 56.2133 3.01752C55.6488 2.44656 54.8819 2.12127 54.079 2.1122ZM43.2635 9.48641L43.2612 9.48644C42.4583 9.49546 41.6914 9.82073 41.1268 10.3917C40.5623 10.9626 40.2456 11.7331 40.2456 12.5361C40.2456 13.339 40.5622 14.1096 41.1268 14.6805C41.6913 15.2515 42.4582 15.5768 43.2611 15.5858L43.2634 15.5858C44.0663 15.5768 44.8332 15.2515 45.3978 14.6806C45.9623 14.1096 46.279 13.3391 46.279 12.5362C46.279 11.7332 45.9624 10.9627 45.3978 10.3917C44.8333 9.82078 44.0663 9.49549 43.2635 9.48641ZM27.5318 1.86639L27.5295 1.86641C26.7267 1.87544 25.9597 2.20071 25.3952 2.77165C24.8306 3.34258 24.514 4.11312 24.514 4.91605C24.5139 5.71898 24.8306 6.48953 25.3951 7.06048C25.9597 7.63143 26.7266 7.95673 27.5295 7.9658L27.5317 7.96578C28.3346 7.95675 29.1015 7.63148 29.6661 7.06054C30.2306 6.48961 30.5473 5.71907 30.5473 4.91614C30.5473 4.11321 30.2307 3.34266 29.6661 2.77171C29.1016 2.20076 28.3347 1.87546 27.5318 1.86639ZM12.7834 16.6148L12.7811 16.6149C11.9782 16.6239 11.2113 16.9491 10.6467 17.5201C10.0822 18.091 9.76552 18.8616 9.76551 19.6645C9.7655 20.4674 10.0821 21.238 10.6467 21.8089C11.2112 22.3799 11.9781 22.7052 12.781 22.7142L12.7833 22.7142C13.5862 22.7052 14.3531 22.3799 14.9176 21.809C15.4822 21.238 15.7989 20.4675 15.7989 19.6646C15.7989 18.8616 15.4823 18.0911 14.9177 17.5201C14.3532 16.9492 13.5862 16.6239 12.7834 16.6148Z" fill="url(#paint2_linear_7_5853)" stroke="#030720" stroke-width="0.2"/>
<defs>
<linearGradient id="paint0_linear_7_5853" x1="7.05087" y1="50.8518" x2="14.6418" y2="48.4074" gradientUnits="userSpaceOnUse">
<stop stop-color="#8715E4"/>
<stop offset="1" stop-color="#E62274"/>
</linearGradient>
<linearGradient id="paint1_linear_7_5853" x1="9.64423" y1="55.7955" x2="60.488" y2="22.5091" gradientUnits="userSpaceOnUse">
<stop stop-color="#8715E4"/>
<stop offset="1" stop-color="#E62274"/>
</linearGradient>
<linearGradient id="paint2_linear_7_5853" x1="16.224" y1="24.5807" x2="59.2376" y2="-4.70064" gradientUnits="userSpaceOnUse">
<stop stop-color="#8715E4"/>
<stop offset="1" stop-color="#E62274"/>
</linearGradient>
</defs>
</svg>
