<svg width="51" height="57" viewBox="0 0 51 57" fill="none" xmlns="http://www.w3.org/2000/svg">
<path d="M50.313 26.1256C50.1638 24.024 49.8944 21.9326 49.5059 19.8619C49.4586 19.6079 49.3528 19.3684 49.1968 19.1625C49.0409 18.9565 48.8391 18.7897 48.6074 18.6754C48.3725 18.5566 48.1132 18.4944 47.85 18.4934C47.5868 18.4925 47.327 18.5529 47.0913 18.67C45.4467 19.4596 44.1502 20.8267 43.4487 22.5108C42.818 24.1091 42.7846 25.8811 43.3545 27.502C43.4692 27.8264 43.4612 28.1816 43.332 28.5006L42.4276 30.6415C41.7041 30.7358 41.0277 31.0523 40.4917 31.5474L36.7412 35.0347C36.6081 35.1561 36.4359 35.2255 36.2559 35.2305C35.0761 35.2821 33.9193 35.5742 32.8564 36.0889C32.1528 36.4313 31.5009 36.871 30.9199 37.3951C30.0225 38.2365 29.3111 39.2565 28.8317 40.3895C28.3522 41.5224 28.1153 42.7432 28.1362 43.9732V48.4516C27.7999 48.6233 27.5174 48.8842 27.3196 49.2059C27.1219 49.5275 27.0165 49.8974 27.0151 50.275V54.0011C27.0158 54.5476 27.2332 55.0716 27.6196 55.4581C28.0061 55.8446 28.5301 56.062 29.0767 56.0626H39.874C40.4206 56.062 40.9446 55.8446 41.3311 55.4581C41.7175 55.0716 41.9349 54.5476 41.9355 54.0011V50.275C41.9339 49.8384 41.7935 49.4137 41.5345 49.0622C41.2755 48.7108 40.9114 48.4508 40.4949 48.32L40.4966 48.2647C40.5081 47.902 40.6619 47.5584 40.9248 47.3082L48.5537 39.9659C49.3326 39.2154 49.8345 38.2235 49.978 37.1515C50.4584 33.4966 50.5707 29.8028 50.313 26.1256ZM39.874 54.0626L29.0151 54.0011L29.0767 50.2139H39.874C39.8903 50.2139 39.9058 50.2203 39.9174 50.2318C39.9289 50.2432 39.9354 50.2587 39.9355 50.2749L39.874 54.0626ZM47.9951 36.8907C47.9142 37.514 47.6219 38.0907 47.167 38.5245L39.5376 45.8673C38.8961 46.4824 38.5226 47.3255 38.4981 48.2139H30.1362V43.9732C30.1154 43.0233 30.2935 42.0796 30.659 41.2026C31.0245 40.3256 31.5695 39.5348 32.2588 38.8809C32.7005 38.4821 33.1963 38.1476 33.7314 37.8873C34.5508 37.4915 35.4424 37.2673 36.3516 37.2286C37.0032 37.1997 37.6237 36.9415 38.1036 36.4996L41.8536 33.0118C42.0737 32.8099 42.3475 32.6758 42.6421 32.6259C42.9367 32.576 43.2394 32.6124 43.5137 32.7306C43.6333 32.7815 43.7345 32.8677 43.8038 32.9776C43.873 33.0875 43.9071 33.216 43.9014 33.3458C43.9004 33.7505 43.749 34.1403 43.4766 34.4396L38.7886 39.6305C38.7006 39.728 38.6326 39.8418 38.5886 39.9655C38.5445 40.0893 38.5253 40.2205 38.5319 40.3517C38.5386 40.4828 38.571 40.6114 38.6274 40.73C38.6838 40.8487 38.7629 40.955 38.8604 41.0431C38.9579 41.1311 39.0717 41.1991 39.1954 41.2431C39.3192 41.2872 39.4504 41.3064 39.5816 41.2998C39.7127 41.2931 39.8413 41.2607 39.9599 41.2043C40.0786 41.148 40.1849 41.0688 40.273 40.9713L44.961 35.7799C45.5742 35.0992 45.9098 34.2132 45.9014 33.297C45.899 32.8143 45.7628 32.3416 45.5079 31.9316C45.253 31.5216 44.8895 31.1903 44.4576 30.9746L45.1744 29.2784C45.4947 28.5084 45.5209 27.6476 45.2481 26.8595C44.8338 25.6895 44.8545 24.4095 45.3062 23.2535C45.7586 22.1493 46.5739 21.2323 47.6177 20.6539C47.9508 22.5109 48.1845 24.3843 48.3179 26.2662C48.5662 29.8096 48.4581 33.3689 47.9951 36.8907Z" fill="url(#paint0_linear_7_5857)"/>
<path d="M22.3079 48.4517L22.3093 43.9735C22.3307 42.7433 22.0944 41.5223 21.6153 40.389C21.1363 39.2557 20.4253 38.2353 19.528 37.3934C18.9469 36.8698 18.2952 36.4301 17.592 36.0873C16.5297 35.5725 15.3734 35.2801 14.1941 35.2279C14.0137 35.2227 13.8411 35.1532 13.7073 35.0321L9.95928 31.5433C9.42299 31.0471 8.74524 30.7305 8.0205 30.6378L7.11797 28.5004C6.98735 28.2056 6.97116 27.8728 7.07256 27.5668C7.6569 25.9273 7.63194 24.1323 7.00225 22.5097C6.30084 20.8237 5.00284 19.4553 3.35625 18.6659C3.12133 18.5487 2.86228 18.4879 2.59974 18.4885C2.3372 18.4891 2.07843 18.551 1.84405 18.6693C1.61221 18.7844 1.41034 18.9519 1.2544 19.1586C1.09847 19.3652 0.992748 19.6052 0.945607 19.8597C-0.125973 25.5521 -0.287985 31.3784 0.465607 37.1215C0.606595 38.2027 1.10947 39.2043 1.89235 39.9633L9.51979 47.308C9.78426 47.5613 9.93814 47.9087 9.94801 48.2748L9.94935 48.3196C9.53279 48.4504 9.16867 48.7104 8.90965 49.0619C8.65064 49.4134 8.51017 49.8382 8.50856 50.2748V54.0009C8.50915 54.5473 8.72646 55.0713 9.11283 55.4577C9.4992 55.8442 10.0231 56.0617 10.5696 56.0624H21.3673C21.9138 56.0617 22.4377 55.8442 22.8241 55.4577C23.2104 55.0713 23.4278 54.5473 23.4283 54.0009V50.2748C23.427 49.8973 23.3217 49.5275 23.1241 49.2059C22.9264 48.8844 22.6441 48.6234 22.3079 48.4517ZM3.2795 38.5223C2.82292 38.0788 2.53015 37.4936 2.44894 36.8622C1.74118 31.4712 1.87096 26.0031 2.8337 20.6517C3.87734 21.2304 4.69252 22.1475 5.1447 23.2518C5.60298 24.4242 5.61721 25.7236 5.1847 26.9056C4.91903 27.6801 4.95105 28.5256 5.27454 29.2777L5.98896 30.9694C5.55182 31.1908 5.18529 31.5299 4.93075 31.9486C4.6762 32.3673 4.54379 32.8488 4.54847 33.3388C4.54865 34.239 4.88349 35.1071 5.48792 35.7743L10.1739 40.9667C10.3516 41.1635 10.6002 41.2817 10.865 41.2953C11.1298 41.3088 11.3892 41.2166 11.586 41.039C11.7829 40.8613 11.9011 40.6127 11.9146 40.3479C11.9282 40.083 11.836 39.8237 11.6583 39.6268L6.97275 34.4345C6.69159 34.1208 6.53994 33.7121 6.54844 33.2909C6.55128 33.1654 6.59164 33.0437 6.6643 32.9413C6.73697 32.839 6.83861 32.7607 6.95615 32.7167C7.22856 32.6025 7.5281 32.5692 7.81895 32.6207C8.10981 32.6722 8.37967 32.8064 8.59629 33.0072L12.3448 36.4965C12.8249 36.9381 13.4452 37.1963 14.0968 37.226C15.0058 37.2651 15.8972 37.4894 16.7164 37.8851C17.2512 38.1462 17.7467 38.4808 18.1886 38.8793C18.8778 39.5334 19.4225 40.3244 19.7877 41.2016C20.1529 42.0787 20.3306 43.0226 20.3092 43.9725L20.3079 48.2138H11.9468C11.9223 47.3252 11.5487 46.4821 10.9069 45.8671L3.2795 38.5223ZM21.3674 54.0624L10.5085 54.0008V50.2748L10.5695 50.2138L21.4284 50.2748L21.3674 54.0624Z" fill="url(#paint1_linear_7_5857)"/>
<path d="M25.2232 0C22.0587 0 18.9652 0.938383 16.334 2.69649C13.7028 4.45459 11.6521 6.95345 10.4411 9.87706C9.23008 12.8007 8.91322 16.0177 9.53059 19.1214C10.148 22.2251 11.6718 25.0761 13.9094 27.3137C16.1471 29.5513 18.998 31.0752 22.1017 31.6926C25.2054 32.3099 28.4225 31.9931 31.3461 30.7821C34.2697 29.5711 36.7686 27.5203 38.5267 24.8891C40.2848 22.2579 41.2232 19.1645 41.2232 16C41.2183 11.758 39.531 7.69118 36.5315 4.69165C33.532 1.69212 29.4651 0.00485138 25.2232 0ZM33.0684 27.5885L32.1416 25.9839C32.076 25.8701 31.9886 25.7704 31.8844 25.6904C31.7802 25.6105 31.6613 25.5518 31.5345 25.5178C31.4076 25.4838 31.2753 25.4751 31.1451 25.4922C31.0149 25.5094 30.8893 25.552 30.7756 25.6177C30.6619 25.6834 30.5622 25.7708 30.4823 25.875C30.4024 25.9793 30.3438 26.0982 30.3098 26.2251C30.2759 26.3519 30.2673 26.4843 30.2845 26.6145C30.3017 26.7447 30.3444 26.8702 30.4102 26.9839L31.3308 28.578C29.732 29.3584 27.9979 29.824 26.2232 29.9493V28.1055C26.2232 27.8403 26.1178 27.5859 25.9303 27.3984C25.7427 27.2108 25.4884 27.1055 25.2232 27.1055C24.9579 27.1055 24.7036 27.2108 24.516 27.3984C24.3285 27.5859 24.2232 27.8403 24.2232 28.1055V29.9493C22.4487 29.824 20.7148 29.3585 19.1162 28.5783L20.0366 26.9839C20.1692 26.7541 20.2051 26.4811 20.1365 26.2249C20.0678 25.9687 19.9001 25.7503 19.6704 25.6176C19.4407 25.485 19.1677 25.4491 18.9115 25.5178C18.6552 25.5865 18.4368 25.7541 18.3042 25.9839L17.3779 27.5884C15.9053 26.5879 14.6352 25.3179 13.6347 23.8452L15.2393 22.9189C15.469 22.7863 15.6366 22.5679 15.7053 22.3117C15.774 22.0554 15.7381 21.7824 15.6055 21.5527C15.4729 21.323 15.2544 21.1553 14.9982 21.0866C14.742 21.018 14.469 21.0539 14.2393 21.1865L12.6448 22.107C11.8646 20.5083 11.3991 18.7744 11.2738 17H13.1177C13.3829 17 13.6372 16.8946 13.8248 16.7071C14.0123 16.5195 14.1177 16.2652 14.1177 16C14.1177 15.7347 14.0123 15.4804 13.8248 15.2929C13.6372 15.1053 13.3829 15 13.1177 15H11.2738C11.3992 13.2255 11.8646 11.4917 12.6448 9.89296L14.2393 10.8134C14.469 10.946 14.742 10.982 14.9982 10.9133C15.2545 10.8446 15.4729 10.6769 15.6055 10.4472C15.7381 10.2175 15.774 9.94448 15.7054 9.68826C15.6367 9.43205 15.469 9.21361 15.2393 9.081L13.6347 8.15467C14.6352 6.68206 15.9053 5.41201 17.3779 4.41151L18.3042 6.01606C18.4368 6.24579 18.6553 6.41344 18.9115 6.48212C19.1677 6.5508 19.4407 6.51488 19.6704 6.38227C19.9002 6.24967 20.0678 6.03123 20.1365 5.77501C20.2052 5.5188 20.1693 5.24579 20.0367 5.01606L19.1162 3.42163C20.7148 2.64145 22.4487 2.17601 24.2232 2.05066V3.89453C24.2232 4.15975 24.3285 4.4141 24.516 4.60164C24.7036 4.78917 24.9579 4.89453 25.2232 4.89453C25.4884 4.89453 25.7427 4.78917 25.9303 4.60164C26.1178 4.4141 26.2232 4.15975 26.2232 3.89453V2.05066C27.9979 2.17601 29.732 2.64158 31.3308 3.422L30.4102 5.01611C30.3444 5.1298 30.3017 5.25534 30.2845 5.38554C30.2673 5.51574 30.2759 5.64805 30.3098 5.77492C30.3438 5.9018 30.4024 6.02074 30.4823 6.12496C30.5622 6.22917 30.6619 6.31662 30.7756 6.3823C30.8893 6.44799 31.0149 6.49062 31.1451 6.50776C31.2753 6.52491 31.4076 6.51623 31.5345 6.48222C31.6613 6.44822 31.7802 6.38955 31.8844 6.30957C31.9886 6.22959 32.076 6.12987 32.1416 6.01611L33.0684 4.4115C34.541 5.41198 35.8111 6.68206 36.8116 8.15472L35.207 9.08105C35.0933 9.14671 34.9936 9.23413 34.9136 9.33833C34.8336 9.44252 34.775 9.56145 34.741 9.68831C34.6723 9.94453 34.7082 10.2175 34.8408 10.4473C34.9734 10.677 35.1919 10.8446 35.4481 10.9133C35.7043 10.982 35.9773 10.9461 36.207 10.8135L37.8015 9.89301C38.5817 11.4917 39.0472 13.2255 39.1725 15H37.3292C37.0639 15 36.8096 15.1054 36.622 15.2929C36.4345 15.4804 36.3292 15.7348 36.3292 16C36.3292 16.2652 36.4345 16.5196 36.622 16.7071C36.8096 16.8947 37.0639 17 37.3292 17H39.1725C39.0472 18.7745 38.5817 20.5083 37.8015 22.107L36.2071 21.1865C36.0933 21.1209 35.9677 21.0783 35.8375 21.0611C35.7073 21.044 35.575 21.0527 35.4481 21.0867C35.1919 21.1554 34.9734 21.323 34.8408 21.5528C34.7082 21.7825 34.6723 22.0555 34.741 22.3117C34.8097 22.5679 34.9773 22.7864 35.2071 22.919L36.8116 23.8453C35.8111 25.318 34.541 26.588 33.0684 27.5885Z" fill="url(#paint2_linear_7_5857)"/>
<path d="M30.3115 17H25.2231C24.9579 17 24.7036 16.8946 24.516 16.7071C24.3285 16.5196 24.2231 16.2652 24.2231 16V7.49951C24.2231 7.2343 24.3285 6.97994 24.516 6.79241C24.7036 6.60487 24.9579 6.49951 25.2231 6.49951C25.4884 6.49951 25.7427 6.60487 25.9303 6.79241C26.1178 6.97994 26.2231 7.2343 26.2231 7.49951V15H30.3115C30.5767 15 30.8311 15.1054 31.0186 15.2929C31.2062 15.4804 31.3115 15.7348 31.3115 16C31.3115 16.2652 31.2062 16.5196 31.0186 16.7071C30.8311 16.8946 30.5767 17 30.3115 17Z" fill="url(#paint3_linear_7_5857)"/>
<defs>
<linearGradient id="paint0_linear_7_5857" x1="30.8455" y1="56.0626" x2="58.5397" y2="50.4096" gradientUnits="userSpaceOnUse">
<stop stop-color="#8715E4"/>
<stop offset="1" stop-color="#E62274"/>
</linearGradient>
<linearGradient id="paint1_linear_7_5857" x1="3.82963" y1="56.0624" x2="31.5196" y2="50.412" gradientUnits="userSpaceOnUse">
<stop stop-color="#8715E4"/>
<stop offset="1" stop-color="#E62274"/>
</linearGradient>
<linearGradient id="paint2_linear_7_5857" x1="14.4539" y1="32" x2="50.0383" y2="20.3544" gradientUnits="userSpaceOnUse">
<stop stop-color="#8715E4"/>
<stop offset="1" stop-color="#E62274"/>
</linearGradient>
<linearGradient id="paint3_linear_7_5857" x1="25.3818" y1="17" x2="33.7023" y2="15.1618" gradientUnits="userSpaceOnUse">
<stop stop-color="#8715E4"/>
<stop offset="1" stop-color="#E62274"/>
</linearGradient>
</defs>
</svg>
