<svg width="52" height="36" viewBox="0 0 52 36" fill="none" xmlns="http://www.w3.org/2000/svg">
<path d="M21.8626 22.1062C21.8626 22.4595 21.721 22.7983 21.4691 23.0481C21.2172 23.298 20.8755 23.4383 20.5192 23.4383H7.85843C7.50216 23.4383 7.16048 23.298 6.90856 23.0481C6.65664 22.7983 6.51511 22.4595 6.51511 22.1062C6.51511 21.7529 6.65664 21.4141 6.90856 21.1643C7.16048 20.9144 7.50216 20.7741 7.85843 20.7741H20.526C20.8811 20.7759 21.221 20.917 21.4715 21.1666C21.722 21.4162 21.8626 21.7541 21.8626 22.1062ZM15.3475 28.5735C15.3475 28.2202 15.2059 27.8814 14.954 27.6316C14.7021 27.3818 14.3604 27.2414 14.0041 27.2414H1.34332C0.987051 27.2414 0.645371 27.3818 0.39345 27.6316C0.141528 27.8814 0 28.2202 0 28.5735C0 28.9268 0.141528 29.2657 0.39345 29.5155C0.645371 29.7653 0.987051 29.9056 1.34332 29.9056H14.0041C14.3604 29.9056 14.7021 29.7653 14.954 29.5155C15.2059 29.2657 15.3475 28.9268 15.3475 28.5735ZM20.526 33.3358H7.85843C7.50216 33.3358 7.16048 33.4761 6.90856 33.726C6.65664 33.9758 6.51511 34.3146 6.51511 34.6679C6.51511 35.0212 6.65664 35.36 6.90856 35.6098C7.16048 35.8596 7.50216 36 7.85843 36H20.526C20.8822 36 21.2239 35.8596 21.4758 35.6098C21.7278 35.36 21.8693 35.0212 21.8693 34.6679C21.8693 34.3146 21.7278 33.9758 21.4758 33.726C21.2239 33.4761 20.8822 33.3358 20.526 33.3358ZM26.7388 16.3382C27.5476 16.9063 28.4974 17.2449 29.4859 17.3173C30.4731 17.2488 31.4228 16.9149 32.233 16.3515C37.1966 13.3943 38.4862 12.6616 43.4498 9.69103C44.8401 8.86512 43.5035 6.57391 42.1602 7.37317C37.4585 10.1639 36.4443 10.7034 31.7763 13.4942C30.6748 14.1602 30.077 14.4799 29.4859 14.4799C28.8949 14.4799 28.2904 14.1536 27.1888 13.4942C22.5208 10.7101 21.4999 10.1639 16.805 7.37317C15.4616 6.57391 14.1183 8.86512 15.5154 9.69103C20.4857 12.6549 21.7753 13.3809 26.7388 16.3382ZM44.6117 1.50404e-09H14.387C12.4275 1.50404e-09 10.5483 0.771902 9.16268 2.1459C7.77711 3.51989 6.99871 5.38343 6.99871 7.32655V15.8853C6.99871 17.6303 9.68535 17.4239 9.68535 15.8853V7.27993C9.68535 6.04339 10.1807 4.85751 11.0624 3.98315C11.9442 3.10879 13.14 2.61758 14.387 2.61758H44.6117C45.8587 2.61758 47.0546 3.10879 47.9363 3.98315C48.818 4.85751 49.3134 6.04339 49.3134 7.27993V28.6735C49.3134 29.91 48.818 31.0959 47.9363 31.9702C47.0546 32.8446 45.8587 33.3358 44.6117 33.3358H27.2762C27.0838 33.3101 26.888 33.3261 26.7025 33.3826C26.5169 33.4391 26.3459 33.5348 26.2012 33.6632C26.0565 33.7916 25.9416 33.9495 25.8644 34.1261C25.7872 34.3027 25.7495 34.4939 25.7539 34.6863C25.7583 34.8788 25.8048 35.068 25.89 35.241C25.9753 35.4139 26.0973 35.5665 26.2477 35.6882C26.3981 35.8099 26.5734 35.8978 26.7614 35.9459C26.9493 35.9939 27.1456 36.001 27.3366 35.9667H44.6117C45.582 35.9667 46.5427 35.7772 47.4391 35.409C48.3355 35.0408 49.15 34.5011 49.836 33.8208C50.5221 33.1405 51.0663 32.3328 51.4376 31.4439C51.8089 30.555 52 29.6023 52 28.6401V7.27993C51.9876 5.34489 51.2037 3.49331 49.8195 2.12939C48.4352 0.765459 46.5631 -3.91801e-05 44.6117 1.50404e-09Z" fill="url(#paint0_linear_7_5862)"/>
<defs>
<linearGradient id="paint0_linear_7_5862" x1="8.5" y1="36" x2="60.8251" y2="11.2648" gradientUnits="userSpaceOnUse">
<stop stop-color="#8715E4"/>
<stop offset="1" stop-color="#E62274"/>
</linearGradient>
</defs>
</svg>
