<svg width="61" height="56" viewBox="0 0 61 56" fill="none" xmlns="http://www.w3.org/2000/svg">
<path d="M35.1269 34.1813V33.1098C42.3827 31.3873 42.454 21.1258 35.1269 19.5072V14.8214C35.1269 10.8588 33.5823 7.13764 30.7797 4.34454C21.3859 -5.04981 5.44949 1.80929 5.47505 15.1862L5.47495 19.5049C-2.83875 21.5166 -1.22215 33.2037 7.207 33.3297L7.95008 33.3297C9.23038 33.3297 10.2717 32.2884 10.2717 31.0086C10.2733 28.7157 10.2706 23.9615 10.2717 21.6496C10.283 20.17 8.93042 19.158 7.50991 19.3275V15.186C7.43829 3.6479 21.2748 -2.34672 29.3405 5.78354C31.7595 8.19386 33.0919 11.4033 33.0919 14.8214V19.3275C31.6716 19.1597 30.3184 20.1684 30.3301 21.6497L30.3301 26.7887V31.0086C30.3184 32.4871 31.6719 33.4993 33.0919 33.3297C33.1444 34.2698 33.0952 35.2878 32.0585 35.6558L25.0008 38.2243C25.3487 34.6399 20.7736 32.5536 18.41 35.3658C16.7193 37.2182 17.2883 40.6414 20.1445 40.6945C20.1936 40.68 23.9682 40.705 24.0141 40.6945C24.1333 40.6905 24.2476 40.6667 24.3534 40.625L32.7516 37.5686C34.1725 37.0558 35.1269 35.6946 35.1269 34.1813ZM7.95008 21.3624C8.10807 21.3624 8.23675 21.4916 8.23675 21.6496C8.23412 23.9695 8.23864 28.709 8.23674 31.0086C8.24568 31.4545 7.46165 31.2527 7.20684 31.2948C0.767197 31.1593 0.0915702 22.1369 6.57589 21.3774C6.83898 21.3532 7.67454 21.3649 7.95008 21.3624ZM32.3651 31.0086C32.3649 28.7168 32.3652 23.9606 32.3651 21.6496C32.3651 21.4916 32.4937 21.3624 32.6517 21.3624C32.9423 21.3741 33.7516 21.3465 34.035 21.3777C40.5168 22.1505 39.8241 31.1622 33.3948 31.2947C33.1417 31.2521 32.3571 31.4551 32.3651 31.0086ZM22.9658 38.6596H20.1444C19.1085 38.5807 19.4757 37.2104 19.9586 36.6862C20.9356 35.4531 23.0187 36.3098 22.9658 37.8359L22.9658 38.6596Z" fill="url(#paint0_linear_7_5863)"/>
<path d="M56.2075 25.4324H43.7027C42.3755 25.4429 42.3681 27.4581 43.7027 27.4673L56.2075 27.4673C57.7278 27.4673 58.9648 28.7044 58.9648 30.2246V45.0595C58.9648 46.5798 57.7278 47.8169 56.2075 47.8169H51.5166C50.9587 47.8047 50.4717 48.3074 50.4996 48.8642C50.5438 50.3914 50.8359 51.854 51.1445 53.0016C49.1418 51.7328 47.7865 49.8598 46.9424 48.3405C46.7631 48.0176 46.4227 47.8169 46.0531 47.8169H29.1629C27.6426 47.8169 26.4056 46.5798 26.4056 45.0595V43.4926C26.387 42.1583 24.3912 42.1536 24.3706 43.4926L24.3706 45.0595C24.3706 47.7016 26.5203 49.8518 29.1629 49.8518H45.4659C46.7949 52.0686 49.0405 54.7355 52.5375 55.904C53.33 56.2016 54.1566 55.3113 53.7959 54.5407C53.7855 54.5159 52.8823 52.3657 52.6071 49.8518H56.2075C58.8501 49.8518 60.9998 47.7016 60.9998 45.0595V30.2246C60.9998 27.5826 58.8501 25.4324 56.2075 25.4324Z" fill="url(#paint1_linear_7_5863)"/>
<path d="M53.8776 36.6246C55.2054 36.6196 55.2104 34.595 53.8776 34.5896L44.7203 34.5896C43.3926 34.5946 43.3876 36.6191 44.7204 36.6246L53.8776 36.6246Z" fill="url(#paint2_linear_7_5863)"/>
<path d="M36.5806 40.6945C36.5806 41.2569 37.0361 41.712 37.598 41.712H53.8777C54.4396 41.712 54.8952 41.2569 54.8952 40.6945C54.8952 40.1321 54.4396 39.677 53.8777 39.677H37.598C37.0361 39.677 36.5806 40.1321 36.5806 40.6945Z" fill="url(#paint3_linear_7_5863)"/>
<defs>
<linearGradient id="paint0_linear_7_5863" x1="6.63581" y1="40.6972" x2="51.8004" y2="25.9532" gradientUnits="userSpaceOnUse">
<stop stop-color="#8715E4"/>
<stop offset="1" stop-color="#E62274"/>
</linearGradient>
<linearGradient id="paint1_linear_7_5863" x1="30.3581" y1="55.9628" x2="69.4292" y2="40.6218" gradientUnits="userSpaceOnUse">
<stop stop-color="#8715E4"/>
<stop offset="1" stop-color="#E62274"/>
</linearGradient>
<linearGradient id="paint2_linear_7_5863" x1="45.5457" y1="36.6246" x2="48.8016" y2="30.7848" gradientUnits="userSpaceOnUse">
<stop stop-color="#8715E4"/>
<stop offset="1" stop-color="#E62274"/>
</linearGradient>
<linearGradient id="paint3_linear_7_5863" x1="39.5743" y1="41.712" x2="41.9047" y2="34.8481" gradientUnits="userSpaceOnUse">
<stop stop-color="#8715E4"/>
<stop offset="1" stop-color="#E62274"/>
</linearGradient>
</defs>
</svg>
