<svg width="54" height="56" viewBox="0 0 54 56" fill="none" xmlns="http://www.w3.org/2000/svg">
<path d="M9.95455 18.1609L9.95442 18.16C9.84559 17.4612 9.80699 16.4364 9.83191 15.4161C9.85684 14.3956 9.94478 13.4018 10.0815 12.7632C10.7445 9.76308 12.1033 7.22023 14.2304 5.02338C16.7304 2.442 19.7262 0.886124 23.2606 0.32806C23.7943 0.243797 24.905 0.230579 26.0416 0.274868C27.1779 0.319138 28.2949 0.419113 28.8411 0.54863L28.8423 0.548916C35.2584 2.03671 40.0104 7.13745 41.0448 13.6229L41.0449 13.6236C41.1476 14.2567 41.1862 15.2071 41.1657 16.1734C41.1452 17.139 41.0661 18.0999 40.94 18.753L40.94 18.7532C40.254 22.3225 38.3472 25.6101 35.7032 27.8138C35.703 27.814 35.7027 27.8143 35.7024 27.8145L35.8624 28.0066C35.4021 28.3843 35.0362 28.7266 35.0362 28.762C35.0362 28.7795 35.1177 28.8262 35.2503 28.8876L9.95455 18.1609ZM9.95455 18.1609C10.4195 21.2178 11.6972 23.9706 13.6952 26.2594C14.043 26.6477 14.5208 27.1285 14.9794 27.555C15.443 27.9861 15.8703 28.346 16.1198 28.5033L16.12 28.503M9.95455 18.1609L16.12 28.503M16.12 28.503L16.131 28.5107M16.12 28.503L16.131 28.5107M16.131 28.5107L16.136 28.5143C16.1674 28.5365 16.2072 28.5647 16.2406 28.5936C16.2725 28.6213 16.3308 28.6761 16.3604 28.7596C16.3974 28.8639 16.3745 28.9641 16.3268 29.0405C16.2868 29.1046 16.2293 29.1534 16.1791 29.1904C16.076 29.2664 15.9143 29.3553 15.6916 29.4687C15.4648 29.5841 15.1576 29.7333 14.7526 29.9299L14.751 29.9306C14.7508 29.9308 14.7506 29.9309 14.7504 29.931C6.23889 34.1052 0.769662 42.3456 0.278745 51.7315L0.278694 51.7324M16.131 28.5107L0.278694 51.7324M0.278694 51.7324C0.231519 52.5757 0.239894 53.1067 0.323795 53.5019C0.40429 53.881 0.556226 54.1432 0.827816 54.442L0.827819 54.442M0.278694 51.7324L0.827819 54.442M0.827819 54.442L0.828826 54.4431M0.827819 54.442L0.828826 54.4431M0.828826 54.4431C1.85758 55.5885 3.72828 55.3671 4.47225 54.0173L4.47223 54.0173M0.828826 54.4431L4.47223 54.0173M4.47223 54.0173L4.47377 54.0146M4.47223 54.0173L4.47377 54.0146M4.47377 54.0146C4.68789 53.6374 4.736 53.3917 4.81929 51.9521C4.98634 48.934 5.65537 46.3282 6.94537 43.7004L6.94537 43.7004M4.47377 54.0146L6.94537 43.7004M6.94537 43.7004C9.8601 37.7634 15.1179 33.7147 21.764 32.271L21.7645 32.2708M6.94537 43.7004L21.7645 32.2708M21.7645 32.2708C22.8908 32.0286 23.3868 32.0056 25.8891 32.0056C28.3913 32.0056 28.8873 32.0286 30.0136 32.2708L30.0146 32.2711M21.7645 32.2708L30.0146 32.2711M30.0146 32.2711C32.3557 32.7847 34.6213 33.6799 37.0353 35.0355L36.9129 35.2535L30.0146 32.2711ZM27.0217 4.8484L27.0224 4.84846C29.1757 5.05528 31.7067 6.31244 33.3836 7.98927C36.378 10.9837 37.4151 15.3307 36.1006 19.4313C35.3384 21.8144 33.4463 24.2007 31.2928 25.4831L31.2928 25.4831C27.2386 27.8964 22.1447 27.5594 18.4862 24.6257C16.4083 22.9706 14.9606 20.5328 14.4777 17.9133L14.4772 17.9104C14.3849 17.3747 14.3467 16.5632 14.3571 15.7653C14.3675 14.9678 14.4267 14.158 14.5379 13.6267L14.5381 13.6259C14.9725 11.5865 15.9385 9.75056 17.3755 8.25305C19.1333 6.41091 21.1044 5.33308 23.4848 4.91018L23.487 4.90979C24.1222 4.80295 24.5616 4.74442 25.0687 4.73523C25.5724 4.7261 26.1366 4.76579 27.0217 4.8484Z" fill="url(#paint0_linear_7_5869)" stroke="#030720" stroke-width="0.5"/>
<path d="M40.4533 49.4638L40.2766 49.2871L40.4533 49.4638C40.3748 49.5424 40.2798 49.5381 40.2642 49.5373L40.2635 49.5373C40.2348 49.536 40.2123 49.5301 40.2031 49.5275C40.1823 49.5217 40.1648 49.5141 40.1558 49.5101C40.1352 49.501 40.1121 49.4889 40.09 49.4769C40.044 49.4519 39.9811 49.4153 39.9049 49.3695C39.7516 49.2774 39.5346 49.1422 39.2705 48.9743C38.742 48.6382 38.0206 48.1681 37.2345 47.6421C36.4451 47.1178 35.6913 46.629 35.1133 46.2628C34.8241 46.0796 34.5797 45.9276 34.3973 45.8173C34.3059 45.762 34.2312 45.718 34.1746 45.6859C34.1463 45.6698 34.1236 45.6574 34.1064 45.6484C34.0938 45.6418 34.0865 45.6383 34.0834 45.6369C33.3883 45.3914 32.4516 45.6001 31.8677 46.1521L31.8675 46.1523C30.9257 47.0406 30.9187 48.6178 31.8047 49.4205L31.805 49.4202L31.8136 49.4289C31.8128 49.428 31.8128 49.4281 31.8141 49.4292C31.8166 49.4313 31.824 49.4377 31.8389 49.4493C31.8586 49.4649 31.8857 49.4853 31.9204 49.5108C31.9896 49.5618 32.0846 49.6296 32.2032 49.7127C32.4402 49.8787 32.7669 50.1029 33.1598 50.3697C33.9452 50.9032 34.992 51.605 36.1072 52.3484L40.1043 55.0093H40.9375C41.0194 55.0093 41.0928 55.0102 41.1596 55.011C41.4312 55.0143 41.5924 55.0162 41.7689 54.9518C41.9783 54.8754 42.2282 54.6914 42.6475 54.1901C43.41 53.2782 44.6359 51.4407 47.1127 47.7282C47.3639 47.3517 47.6279 46.956 47.9056 46.54C49.5045 44.1386 50.8345 42.1157 51.7703 40.6625C52.2384 39.9357 52.6071 39.3527 52.8614 38.9366C52.9886 38.7283 53.0861 38.5637 53.1526 38.4447C53.186 38.385 53.2102 38.3392 53.2262 38.3064C53.235 38.2884 53.2392 38.2782 53.2409 38.2742C53.3603 37.6702 53.3228 37.2694 53.1166 36.8364L53.1159 36.8349C53.0012 36.5899 52.8022 36.321 52.5724 36.0913C52.3403 35.8592 52.0984 35.6884 51.909 35.6174L51.909 35.6175L51.9057 35.6162C51.6816 35.5285 51.318 35.4893 50.9356 35.5091C50.5541 35.5289 50.2043 35.6048 50.0023 35.7099C49.8014 35.8212 49.4503 36.1252 49.2406 36.3784C49.0169 36.663 46.976 39.6769 44.6866 43.1227L44.6864 43.123C43.7856 44.4743 42.9469 45.7341 42.2594 46.7669C42.0731 47.0466 41.898 47.3097 41.7358 47.5534C41.3551 48.1251 41.0452 48.5903 40.829 48.9141C40.7209 49.076 40.636 49.2028 40.5774 49.2899C40.5481 49.3334 40.5251 49.3674 40.5089 49.3911L40.4889 49.4202L40.4807 49.4317L40.4746 49.4397L40.4687 49.4471C40.4668 49.4493 40.4612 49.456 40.4533 49.4638ZM53.2383 38.2873L53.2388 38.285L53.2383 38.2873Z" fill="url(#paint1_linear_7_5869)" stroke="#030720" stroke-width="0.5"/>
<defs>
<linearGradient id="paint0_linear_7_5869" x1="6.77075" y1="-1.66286e-06" x2="54.8872" y2="11.7668" gradientUnits="userSpaceOnUse">
<stop stop-color="#8715E4"/>
<stop offset="1" stop-color="#E62274"/>
</linearGradient>
<linearGradient id="paint1_linear_7_5869" x1="34.6041" y1="35.254" x2="59.1302" y2="44.3434" gradientUnits="userSpaceOnUse">
<stop stop-color="#8715E4"/>
<stop offset="1" stop-color="#E62274"/>
</linearGradient>
</defs>
</svg>
