<svg width="268" height="111" viewBox="0 0 268 111" fill="none" xmlns="http://www.w3.org/2000/svg">
<g filter="url(#filter0_d_7_5409)">
<rect width="220" height="63" rx="31.5" fill="url(#paint0_linear_7_5409)"/>
</g>
<path d="M85.7806 40.224H88.1486V44.768C87.5406 45.2267 86.8366 45.5787 86.0366 45.824C85.2366 46.0693 84.4312 46.192 83.6206 46.192C82.4579 46.192 81.4126 45.9467 80.4846 45.456C79.5566 44.9547 78.8259 44.2667 78.2926 43.392C77.7699 42.5067 77.5086 41.5093 77.5086 40.4C77.5086 39.2907 77.7699 38.2987 78.2926 37.424C78.8259 36.5387 79.5619 35.8507 80.5006 35.36C81.4392 34.8587 82.4952 34.608 83.6686 34.608C84.6499 34.608 85.5406 34.7733 86.3406 35.104C87.1406 35.4347 87.8126 35.9147 88.3566 36.544L86.6926 38.08C85.8926 37.2373 84.9272 36.816 83.7966 36.816C83.0819 36.816 82.4472 36.9653 81.8926 37.264C81.3379 37.5627 80.9059 37.984 80.5966 38.528C80.2872 39.072 80.1326 39.696 80.1326 40.4C80.1326 41.0933 80.2872 41.712 80.5966 42.256C80.9059 42.8 81.3326 43.2267 81.8766 43.536C82.4312 43.8347 83.0606 43.984 83.7646 43.984C84.5112 43.984 85.1832 43.824 85.7806 43.504V40.224ZM99.2283 43.92V46H90.5563V34.8H99.0203V36.88H93.1323V39.312H98.3323V41.328H93.1323V43.92H99.2283ZM103.611 36.912H100.027V34.8H109.787V36.912H106.203V46H103.611V36.912ZM119.393 46.192C118.507 46.192 117.649 46.0747 116.817 45.84C115.995 45.5947 115.334 45.28 114.833 44.896L115.713 42.944C116.193 43.296 116.763 43.5787 117.425 43.792C118.086 44.0053 118.747 44.112 119.409 44.112C120.145 44.112 120.689 44.0053 121.041 43.792C121.393 43.568 121.569 43.2747 121.569 42.912C121.569 42.6453 121.462 42.4267 121.249 42.256C121.046 42.0747 120.779 41.9307 120.449 41.824C120.129 41.7173 119.691 41.6 119.137 41.472C118.283 41.2693 117.585 41.0667 117.041 40.864C116.497 40.6613 116.027 40.336 115.633 39.888C115.249 39.44 115.057 38.8427 115.057 38.096C115.057 37.4453 115.233 36.8587 115.585 36.336C115.937 35.8027 116.465 35.3813 117.169 35.072C117.883 34.7627 118.753 34.608 119.777 34.608C120.491 34.608 121.19 34.6933 121.873 34.864C122.555 35.0347 123.153 35.28 123.665 35.6L122.865 37.568C121.83 36.9813 120.795 36.688 119.761 36.688C119.035 36.688 118.497 36.8053 118.145 37.04C117.803 37.2747 117.633 37.584 117.633 37.968C117.633 38.352 117.83 38.64 118.225 38.832C118.63 39.0133 119.243 39.1947 120.065 39.376C120.918 39.5787 121.617 39.7813 122.161 39.984C122.705 40.1867 123.169 40.5067 123.553 40.944C123.947 41.3813 124.145 41.9733 124.145 42.72C124.145 43.36 123.963 43.9467 123.601 44.48C123.249 45.0027 122.715 45.4187 122.001 45.728C121.286 46.0373 120.417 46.192 119.393 46.192ZM128.079 36.912H124.495V34.8H134.255V36.912H130.671V46H128.079V36.912ZM142.464 43.6H137.264L136.272 46H133.616L138.608 34.8H141.168L146.176 46H143.456L142.464 43.6ZM141.648 41.632L139.872 37.344L138.096 41.632H141.648ZM154.474 46L152.314 42.88H152.186H149.93V46H147.338V34.8H152.186C153.178 34.8 154.036 34.9653 154.762 35.296C155.498 35.6267 156.063 36.096 156.458 36.704C156.852 37.312 157.05 38.032 157.05 38.864C157.05 39.696 156.847 40.416 156.442 41.024C156.047 41.6213 155.482 42.08 154.746 42.4L157.258 46H154.474ZM154.426 38.864C154.426 38.2347 154.223 37.7547 153.818 37.424C153.412 37.0827 152.82 36.912 152.042 36.912H149.93V40.816H152.042C152.82 40.816 153.412 40.6453 153.818 40.304C154.223 39.9627 154.426 39.4827 154.426 38.864ZM161.267 36.912H157.683V34.8H167.443V36.912H163.859V46H161.267V36.912ZM177.51 43.92V46H168.838V34.8H177.302V36.88H171.414V39.312H176.614V41.328H171.414V43.92H177.51ZM179.572 34.8H184.66C185.876 34.8 186.948 35.0347 187.876 35.504C188.815 35.9627 189.54 36.6133 190.052 37.456C190.575 38.2987 190.836 39.28 190.836 40.4C190.836 41.52 190.575 42.5013 190.052 43.344C189.54 44.1867 188.815 44.8427 187.876 45.312C186.948 45.7707 185.876 46 184.66 46H179.572V34.8ZM184.532 43.872C185.652 43.872 186.543 43.5627 187.204 42.944C187.876 42.3147 188.212 41.4667 188.212 40.4C188.212 39.3333 187.876 38.4907 187.204 37.872C186.543 37.2427 185.652 36.928 184.532 36.928H182.164V43.872H184.532Z" fill="white"/>
<defs>
<filter id="filter0_d_7_5409" x="0" y="0" width="268" height="111" filterUnits="userSpaceOnUse" color-interpolation-filters="sRGB">
<feFlood flood-opacity="0" result="BackgroundImageFix"/>
<feColorMatrix in="SourceAlpha" type="matrix" values="0 0 0 0 0 0 0 0 0 0 0 0 0 0 0 0 0 0 127 0" result="hardAlpha"/>
<feOffset dy="15"/>
<feGaussianBlur stdDeviation="12"/>
<feComposite in2="hardAlpha" operator="out"/>
<feColorMatrix type="matrix" values="0 0 0 0 0.901961 0 0 0 0 0.133333 0 0 0 0 0.456157 0 0 0 0.3 0"/>
<feBlend mode="normal" in2="BackgroundImageFix" result="effect1_dropShadow_7_5409"/>
<feBlend mode="normal" in="SourceGraphic" in2="effect1_dropShadow_7_5409" result="shape"/>
</filter>
<linearGradient id="paint0_linear_7_5409" x1="24" y1="51" x2="244" y2="51" gradientUnits="userSpaceOnUse">
<stop stop-color="#8715E4"/>
<stop offset="1" stop-color="#800080"/>
</linearGradient>
</defs>
</svg>
